#!OML:ASF I:\Actors\actors\Patient Classification 1\Patient 1\Session 1\Subject1.ASF
:FULLY-SPECIFIED
:DEGREES
662
root 0.290889 17.6636 8.15843 12.8541 4.01342 -12.4925
lowerback 6.87297 6.49121 0.362573
upperback -0.425202 8.78878 2.2343
thorax -4.56593 4.3745 1.15348
lowerneck -13.0096 -11.7425 -1.45626
upperneck 10.5824 -18.0814 16.3812
head 7.11285 -7.58038 3.48365
rclavicle 7.95139e-015 7.95139e-015
rhumerus 41.5869 15.6086 -25.0636
rradius 43.3599
rwrist -29.0454
rhand 13.0422 -27.0333
rfingers 7.12502
rthumb 38.0057 -52.831
lclavicle 7.95139e-015 7.95139e-015
lhumerus -43.3209 -73.8838 114.972
lradius 104.431
lwrist 22.2793
lhand -14.2633 -18.145
lfingers 7.12502
lthumb 11.8752 11.4982
rfemur -9.45187 17.6704 26.3068
rtibia 2.84433
rfoot -11.2507 -26.7513
rtoes 6.28124
lfemur -5.57112 -50.7595 -0.0804792
ltibia -3.12411
lfoot -27.1319 57.5393
ltoes 13.8682
663
root 0.288179 17.6645 8.15963 12.8885 3.97758 -12.5245
lowerback 6.84224 6.53829 0.688966
upperback -0.390697 8.87279 2.17873
thorax -4.45638 4.40813 0.920338
lowerneck -12.6475 -11.7066 -1.89069
upperneck 10.3677 -17.9719 16.7678
head 7.05077 -7.55152 3.70249
rclavicle -7.68303e-014 -3.06128e-014
rhumerus 41.516 17.2041 -21.6046
rradius 45.2221
rwrist -30.3099
rhand 13.1739 -26.9057
rfingers 7.12502
rthumb 38.1301 -52.6694
lclavicle -7.68303e-014 -3.06128e-014
lhumerus -43.7957 -74.044 115.386
lradius 104.556
lwrist 22.0893
lhand -14.46 -18.2328
lfingers 7.12502
lthumb 11.6855 11.4213
rfemur -9.48969 17.8368 26.3343
rtibia 2.85696
rfoot -11.2992 -26.8495
rtoes 6.58325
lfemur -5.59248 -50.7625 0.012991
ltibia -3.169
lfoot -27.5556 57.4898
ltoes 14.3048
664
root 0.284142 17.6663 8.15989 12.9906 3.96718 -12.5266
lowerback 6.81677 6.59322 0.979788
upperback -0.362598 8.96354 2.10532
thorax -4.3581 4.44601 0.686978
lowerneck -12.2485 -11.6767 -2.17273
upperneck 9.86602 -17.8194 17.0014
head 6.85469 -7.53191 3.86362
rclavicle -1.0476e-013 1.35174e-014
rhumerus 41.3528 18.4778 -18.5026
rradius 47.2669
rwrist -31.4086
rhand 13.1762 -26.7253
rfingers 7.12502
rthumb 38.1322 -52.4884
lclavicle -1.0476e-013 1.35174e-014
lhumerus -43.8132 -74.2397 115.394
lradius 104.617
lwrist 21.9307
lhand -14.6252 -18.5398
lfingers 7.12502
lthumb 11.5262 11.1233
rfemur -9.60608 18.0155 26.3077
rtibia 2.86405
rfoot -11.2856 -26.9811
rtoes 6.64363
lfemur -5.77082 -50.6396 0.194623
ltibia -3.21648
lfoot -27.5267 57.4482
ltoes 14.2686
665
root 0.281685 17.6692 8.15926 13.1216 3.99658 -12.5326
lowerback 6.79649 6.60119 1.26879
upperback -0.295214 8.99007 2.03665
thorax -4.22131 4.45299 0.469057
lowerneck -12.2776 -11.5845 -2.23807
upperneck 9.67905 -17.6609 17.0826
head 6.79859 -7.46469 3.92012
rclavicle 2.80286e-014 1.43125e-014
rhumerus 41.3429 19.3302 -15.8513
rradius 49.1893
rwrist -32.2695
rhand 13.239 -26.5465
rfingers 7.12502
rthumb 38.1915 -52.2933
lclavicle 2.80286e-014 1.43125e-014
lhumerus -42.8937 -74.3566 114.483
lradius 104.674
lwrist 22.0147
lhand -14.4214 -18.687
lfingers 7.12502
lthumb 11.7228 10.965
rfemur -9.75497 18.1521 26.275
rtibia 2.85886
rfoot -11.2855 -27.1249
rtoes 6.52288
lfemur -6.0519 -50.4378 0.441597
ltibia -3.23522
lfoot -27.1104 57.3854
ltoes 13.8335
666
root 0.279938 17.6718 8.16008 13.2197 4.00988 -12.5235
lowerback 6.89357 6.58842 1.57988
upperback -0.269231 8.99289 1.92153
thorax -4.18201 4.44581 0.17736
lowerneck -12.4682 -11.5153 -2.20991
upperneck 9.70864 -17.5566 16.938
head 6.81265 -7.41197 3.87494
rclavicle 5.96354e-015 -1.98785e-014
rhumerus 41.4397 20.0005 -13.6159
rradius 50.8027
rwrist -32.8955
rhand 13.1987 -26.4081
rfingers 7.12502
rthumb 38.1535 -52.1654
lclavicle 5.96354e-015 -1.98785e-014
lhumerus -42.3208 -74.3839 113.798
lradius 104.766
lwrist 22.0213
lhand -14.3262 -18.7331
lfingers 7.12502
lthumb 11.8146 10.9137
rfemur -9.85499 18.2535 26.2318
rtibia 2.83935
rfoot -11.3358 -27.2273
rtoes 6.58499
lfemur -6.24677 -50.3582 0.604844
ltibia -3.24756
lfoot -27.1429 57.2983
ltoes 13.9926
667
root 0.276856 17.6745 8.16191 13.2855 3.99717 -12.5107
lowerback 7.09465 6.57727 1.93086
upperback -0.29543 9.0046 1.75957
thorax -4.24139 4.43968 -0.200665
lowerneck -12.6405 -11.4456 -2.11107
upperneck 9.80538 -17.4674 16.7468
head 6.83565 -7.36361 3.80343
rclavicle 6.63941e-014 1.03368e-014
rhumerus 41.537 20.6294 -11.6947
rradius 52.19
rwrist -33.2114
rhand 12.8519 -26.2473
rfingers 7.12502
rthumb 37.826 -52.0937
lclavicle 6.63941e-014 1.03368e-014
lhumerus -42.3832 -74.3381 113.613
lradius 104.901
lwrist 21.9623
lhand -14.2196 -18.8889
lfingers 7.12502
lthumb 11.9173 10.7519
rfemur -9.92194 18.3878 26.1986
rtibia 2.83872
rfoot -11.3894 -27.3276
rtoes 6.766
lfemur -6.34262 -50.3052 0.692944
ltibia -3.28514
lfoot -27.1916 57.2694
ltoes 14.1641
668
root 0.273585 17.677 8.1636 13.337 4.01149 -12.4685
lowerback 7.3759 6.54026 2.4302
upperback -0.324252 8.99324 1.49425
thorax -4.30911 4.41665 -0.769785
lowerneck -12.7317 -11.3591 -2.09184
upperneck 9.73405 -17.3531 16.8146
head 6.82332 -7.30359 3.83301
rclavicle -1.27222e-014 -1.31198e-014
rhumerus 41.5402 21.1361 -10.0932
rradius 53.5549
rwrist -33.3367
rhand 12.7498 -26.0607
rfingers 7.12502
rthumb 37.7296 -51.933
lclavicle -1.27222e-014 -1.31198e-014
lhumerus -42.346 -74.2702 113.158
lradius 105.107
lwrist 22.1594
lhand -13.9099 -19.0123
lfingers 7.12502
lthumb 12.216 10.611
rfemur -9.96594 18.573 26.1426
rtibia 2.83914
rfoot -11.4098 -27.4836
rtoes 6.90922
lfemur -6.43361 -50.2724 0.739006
ltibia -3.3111
lfoot -27.1514 57.2479
ltoes 14.2849
669
root 0.270833 17.6789 8.16575 13.3974 4.06392 -12.4047
lowerback 7.78456 6.50333 3.09603
upperback -0.431044 9.00127 1.09848
thorax -4.4828 4.39382 -1.58384
lowerneck -12.7427 -11.3063 -2.081
upperneck 9.58896 -17.2958 17.047
head 6.79756 -7.26855 3.912
rclavicle 3.85642e-014 -3.49861e-014
rhumerus 41.3017 21.6575 -8.6482
rradius 55.077
rwrist -33.6581
rhand 12.7743 -25.8679
rfingers 7.12502
rthumb 37.7526 -51.734
lclavicle 3.85642e-014 -3.49861e-014
lhumerus -42.0938 -74.1874 112.38
lradius 105.396
lwrist 23.5008
lhand -12.7692 -19.7062
lfingers 7.12502
lthumb 13.3157 9.84842
rfemur -10.0117 18.7457 26.0621
rtibia 2.83581
rfoot -11.4464 -27.6694
rtoes 7.08091
lfemur -6.55317 -50.3235 0.798425
ltibia -3.34769
lfoot -27.2971 57.2264
ltoes 14.6352
670
root 0.268407 17.6798 8.16831 13.4968 4.15621 -12.3588
lowerback 7.76583 6.45613 3.38068
upperback -0.368027 8.9563 1.01698
thorax -4.35198 4.36787 -1.8052
lowerneck -12.7047 -11.2302 -2.15056
upperneck 9.36396 -17.1405 17.0663
head 6.7113 -7.21432 3.95342
rclavicle -5.9039e-014 -2.3059e-014
rhumerus 41.4136 22.0972 -6.65595
rradius 56.681
rwrist -34.0295
rhand 12.566 -25.4694
rfingers 7.12502
rthumb 37.5559 -51.3881
lclavicle -5.9039e-014 -2.3059e-014
lhumerus -42.2156 -74.2043 112.366
lradius 105.491
lwrist 22.8718
lhand -14.2984 -19.4357
lfingers 7.12502
lthumb 11.8414 10.2095
rfemur -10.1032 18.866 25.9897
rtibia 2.828
rfoot -11.5396 -27.8781
rtoes 7.28645
lfemur -6.77311 -50.2482 0.963278
ltibia -3.39772
lfoot -27.2221 57.1215
ltoes 14.6477
671
root 0.265788 17.6812 8.1705 13.6145 4.22747 -12.2978
lowerback 7.40899 6.39743 3.40273
upperback -0.103756 8.85864 1.12677
thorax -3.89576 4.33555 -1.63039
lowerneck -12.7835 -11.1282 -2.38547
upperneck 9.13012 -16.9188 17.0588
head 6.64664 -7.13034 4.01356
rclavicle -1.25135e-013 -7.95139e-016
rhumerus 41.8573 22.2691 -4.53563
rradius 58.1001
rwrist -33.8022
rhand 12.3886 -25.1222
rfingers 7.12502
rthumb 37.3882 -51.0853
lclavicle -1.25135e-013 -7.95139e-016
lhumerus -41.1702 -74.0434 111.427
lradius 105.527
lwrist 21.908
lhand -15.6759 -18.7833
lfingers 7.12502
lthumb 10.5128 10.9338
rfemur -10.2247 18.9411 25.8911
rtibia 2.82404
rfoot -11.6171 -28.055
rtoes 7.34763
lfemur -7.03991 -50.0385 1.11562
ltibia -3.40619
lfoot -26.8316 56.9735
ltoes 14.3176
672
root 0.259576 17.6855 8.17472 13.672 4.20219 -12.2547
lowerback 7.58332 6.37283 3.90655
upperback -0.0857916 8.86048 0.802539
thorax -3.84679 4.32441 -2.24632
lowerneck -12.9508 -11.0938 -2.37563
upperneck 9.15702 -16.9061 17.2016
head 6.69762 -7.10256 4.0493
rclavicle -1.39149e-014 9.93923e-015
rhumerus 41.8331 22.5905 -3.30438
rradius 59.2348
rwrist -32.9304
rhand 12.3299 -24.9926
rfingers 7.12502
rthumb 37.3327 -50.9703
lclavicle -1.39149e-014 9.93923e-015
lhumerus -40.3435 -73.9558 110.122
lradius 105.734
lwrist 22.4026
lhand -15.0049 -18.9278
lfingers 7.12502
lthumb 11.1601 10.7555
rfemur -10.2556 19.1253 25.8458
rtibia 2.81706
rfoot -11.6697 -28.2096
rtoes 7.42659
lfemur -7.07627 -50.0004 1.13275
ltibia -3.43988
lfoot -27.0787 56.9241
ltoes 14.5318
673
root 0.252318 17.6898 8.17997 13.6771 4.17842 -12.2712
lowerback 7.6481 6.35263 4.29806
upperback 0.0272376 8.85771 0.633262
thorax -3.67953 4.32038 -2.62444
lowerneck -13.1649 -11.0389 -2.37581
upperneck 9.14799 -16.8326 17.1882
head 6.72324 -7.05758 4.04445
rclavicle -3.97569e-016 1.59028e-014
rhumerus 41.9725 22.8687 -1.8072
rradius 60.3141
rwrist -32.3023
rhand 12.1967 -24.8425
rfingers 7.12502
rthumb 37.2067 -50.8532
lclavicle -3.97569e-016 1.59028e-014
lhumerus -39.1276 -73.6992 108.642
lradius 105.916
lwrist 22.9367
lhand -14.0345 -19.0471
lfingers 7.12502
lthumb 12.0959 10.5833
rfemur -10.2126 19.393 25.8994
rtibia 2.80563
rfoot -11.7201 -28.4097
rtoes 7.57118
lfemur -6.98606 -49.9826 1.14569
ltibia -3.51343
lfoot -27.4792 56.8503
ltoes 14.9798
674
root 0.250958 17.691 8.18069 13.718 4.17647 -12.2983
lowerback 7.47036 6.30404 4.48473
upperback 0.27836 8.79279 0.73199
thorax -3.31133 4.30071 -2.57556
lowerneck -13.2891 -10.9377 -2.73254
upperneck 8.93275 -16.602 17.2294
head 6.68575 -6.96588 4.13717
rclavicle 1.21259e-014 -7.55382e-015
rhumerus 42.4729 23.009 0.171467
rradius 61.4471
rwrist -32.2559
rhand 12.0288 -24.8277
rfingers 7.12502
rthumb 37.048 -50.8797
lclavicle 1.21259e-014 -7.55382e-015
lhumerus -37.5381 -73.2025 107.15
lradius 106.012
lwrist 23.0291
lhand -13.5835 -18.867
lfingers 7.12502
lthumb 12.5306 10.7373
rfemur -10.2768 19.4796 25.9279
rtibia 2.85192
rfoot -11.7405 -28.481
rtoes 7.62085
lfemur -7.06152 -49.7752 1.2422
ltibia -3.53849
lfoot -27.1306 56.7572
ltoes 14.7966
675
root 0.251205 17.6924 8.17913 13.777 4.1247 -12.2855
lowerback 7.54833 6.26491 4.85674
upperback 0.385998 8.76644 0.624655
thorax -3.17232 4.28706 -2.88112
lowerneck -13.3691 -10.8553 -2.97652
upperneck 8.73703 -16.4361 17.3739
head 6.65475 -6.8942 4.2389
rclavicle 8.5875e-014 -2.3059e-014
rhumerus 42.8524 23.2817 1.8248
rradius 62.4434
rwrist -32.2457
rhand 12.0368 -24.9102
rfingers 7.12502
rthumb 37.0556 -50.9603
lclavicle 8.5875e-014 -2.3059e-014
lhumerus -36.6358 -72.8823 106.051
lradius 106.157
lwrist 23.3987
lhand -13.2226 -18.9094
lfingers 7.12502
lthumb 12.8786 10.6733
rfemur -10.391 19.4535 25.8908
rtibia 2.91957
rfoot -11.7243 -28.419
rtoes 7.63398
lfemur -7.16844 -49.6541 1.29359
ltibia -3.52364
lfoot -27.1147 56.7093
ltoes 14.834
